<svg width="53" height="53" viewBox="0 0 53 53" fill="none" xmlns="http://www.w3.org/2000/svg">
<path d="M11.875 42.75H41.125C41.7425 42.7502 42.337 42.9848 42.7883 43.4064C43.2395 43.828 43.5139 44.4052 43.556 45.0214C43.5981 45.6375 43.4048 46.2466 43.0151 46.7257C42.6253 47.2048 42.0683 47.5181 41.4565 47.6023L41.125 47.625H11.875C11.2574 47.6248 10.6629 47.3902 10.2116 46.9686C9.76037 46.547 9.48597 45.9698 9.44387 45.3536C9.40178 44.7375 9.59513 44.1284 9.98486 43.6493C10.3746 43.1702 10.9316 42.8569 11.5435 42.7727L11.875 42.75H41.125H11.875ZM26.1685 3.77275L26.5 3.75C27.089 3.75002 27.6581 3.96334 28.102 4.35049C28.5459 4.73765 28.8346 5.27245 28.9147 5.856L28.9375 6.1875V31.1735L36.2662 23.848C36.6795 23.4348 37.2275 23.1839 37.8104 23.141C38.3932 23.098 38.972 23.2659 39.4415 23.614L39.7145 23.848C40.1276 24.2613 40.3786 24.8093 40.4215 25.3921C40.4645 25.975 40.2966 26.5538 39.9485 27.0233L39.7145 27.2962L28.2225 38.785C27.8097 39.1978 27.2626 39.4488 26.6805 39.4923C26.0984 39.5359 25.52 39.3691 25.0505 39.0222L24.7775 38.785L13.2855 27.2962C12.8493 26.8613 12.594 26.2774 12.5709 25.6619C12.5477 25.0464 12.7585 24.445 13.1607 23.9785C13.5629 23.5121 14.1268 23.2152 14.739 23.1475C15.3513 23.0799 15.9664 23.2466 16.4607 23.614L16.7337 23.848L24.0625 31.18V6.1875C24.0625 5.59848 24.2758 5.02939 24.663 4.58548C25.0501 4.14156 25.5849 3.85286 26.1685 3.77275L26.5 3.75L26.1685 3.77275Z" fill="#D1345B"/>
</svg>
