<svg width="30" height="30" viewBox="0 0 30 30" fill="none" xmlns="http://www.w3.org/2000/svg">
<path d="M7.5 27.1528H26.25V24.7223H7.515C6.9375 24.7077 6.25 24.4853 6.25 23.507C6.25 22.5287 6.9375 22.3063 7.515 22.2917H26.25V5.27785C26.25 3.93739 25.1288 2.84729 23.75 2.84729H7.5C5.9925 2.84729 3.75 3.8183 3.75 6.49312V23.507C3.75 26.1818 5.9925 27.1528 7.5 27.1528ZM6.25 10.139V6.49312C6.25 5.51482 6.9375 5.29243 7.5 5.27785H23.75V19.8612H6.25V10.139Z" fill="black"/>
<path d="M10 7.70837H21.25V10.1389H10V7.70837Z" fill="black"/>
</svg>
