<svg width="31" height="30" viewBox="0 0 31 30" fill="none" xmlns="http://www.w3.org/2000/svg">
<path d="M15.5 27.5L18.625 25M15.5 27.5V16.25V27.5ZM15.5 27.5L12.375 25L15.5 27.5Z" stroke="black" stroke-width="2" stroke-linecap="round" stroke-linejoin="round"/>
<path d="M6.79251 11.3962C5.61028 11.6937 4.57736 12.4127 3.88783 13.418C3.1983 14.4234 2.89962 15.6459 3.0479 16.856C3.19618 18.066 3.78122 19.1803 4.69309 19.9894C5.60497 20.7985 6.78093 21.2468 8.00001 21.25H9.25001" stroke="black" stroke-width="2" stroke-linecap="round" stroke-linejoin="round"/>
<path d="M20.2875 8.92251C19.8603 7.23073 18.8057 5.76469 17.3377 4.82159C15.8696 3.87848 14.0979 3.52888 12.3816 3.84364C10.6653 4.15841 9.13294 5.11399 8.09509 6.51669C7.05725 7.91938 6.59159 9.66422 6.79252 11.3975C6.79252 11.3975 6.98377 12.5 7.37502 13.125" stroke="black" stroke-width="2" stroke-linecap="round" stroke-linejoin="round"/>
<path d="M21.75 21.25C22.6325 21.2494 23.505 21.0619 24.3098 20.6998C25.1147 20.3378 25.8337 19.8093 26.4197 19.1493C27.0056 18.4894 27.4451 17.7128 27.7092 16.8707C27.9734 16.0286 28.0562 15.1401 27.9522 14.2637C27.8482 13.3873 27.5598 12.5428 27.106 11.7859C26.6521 11.029 26.0431 10.3768 25.319 9.87223C24.595 9.36765 23.7722 9.02215 22.905 8.85845C22.0378 8.69475 21.1457 8.71658 20.2875 8.9225L18.625 9.375" stroke="black" stroke-width="2" stroke-linecap="round" stroke-linejoin="round"/>
</svg>
