<svg width="31" height="30" viewBox="0 0 31 30" fill="none" xmlns="http://www.w3.org/2000/svg">
<path d="M28 15.8333C27.8903 15.8339 27.7816 15.8129 27.6801 15.7715C27.5786 15.73 27.4862 15.6689 27.4084 15.5916L15.5 3.67498L3.59169 15.5916C3.43227 15.7282 3.22721 15.7995 3.01748 15.7914C2.80775 15.7833 2.6088 15.6964 2.46039 15.5479C2.31197 15.3995 2.22503 15.2006 2.21693 14.9909C2.20883 14.7811 2.28017 14.5761 2.41669 14.4166L14.9167 1.91664C15.0728 1.76143 15.284 1.67432 15.5042 1.67432C15.7243 1.67432 15.9356 1.76143 16.0917 1.91664L28.5917 14.4166C28.7064 14.5336 28.784 14.6818 28.8149 14.8427C28.8459 15.0036 28.8287 15.17 28.7655 15.3211C28.7024 15.4723 28.5961 15.6015 28.46 15.6926C28.3238 15.7837 28.1638 15.8326 28 15.8333V15.8333Z" fill="black"/>
<path d="M15.5 6.4917L5.5 16.525V26.6667C5.5 27.1087 5.67559 27.5327 5.98816 27.8452C6.30072 28.1578 6.72464 28.3334 7.16667 28.3334H13V20H18V28.3334H23.8333C24.2754 28.3334 24.6993 28.1578 25.0118 27.8452C25.3244 27.5327 25.5 27.1087 25.5 26.6667V16.4667L15.5 6.4917Z" fill="black"/>
</svg>
