<svg xmlns="http://www.w3.org/2000/svg" x="0px" y="0px"
width="64" height="64"
viewBox="0 0 172 172"
style=" fill:#000000;"><g fill="none" fill-rule="nonzero" stroke="none" stroke-width="1" stroke-linecap="butt" stroke-linejoin="miter" stroke-miterlimit="10" stroke-dasharray="" stroke-dashoffset="0" font-family="none" font-weight="none" font-size="none" text-anchor="none" style="mix-blend-mode: normal"><path d="M0,172v-172h172v172z" fill="none"></path><g fill="#a6324d"><path d="M53.75,24.1875c0,0 -32.25,29.5625 -32.25,64.5v56.4375h26.875h26.875v-56.4375c0,0 -10.75,-8.0625 -26.875,-8.0625c-0.63615,0 -1.24956,0.03363 -1.86865,0.05774c-4.71514,-20.74194 17.99365,-45.74524 17.99365,-45.74524zM129,24.1875c0,0 -32.25,29.5625 -32.25,64.5v56.4375h26.875h26.875v-56.4375c0,0 -10.75,-8.0625 -26.875,-8.0625c-0.63615,0 -1.24956,0.03363 -1.86865,0.05774c-4.71514,-20.74194 17.99365,-45.74524 17.99365,-45.74524z"></path></g></g></svg>