<svg width="295" height="282" viewBox="0 0 295 282" fill="none" xmlns="http://www.w3.org/2000/svg">
<g clip-path="url(#clip0_11:2)">
<path d="M9.64996 174.397C9.60421 174.343 9.57174 174.28 9.5552 174.211C3.39544 148.793 4.43107 122.165 12.5464 97.3007C20.6617 72.4368 35.537 50.3167 55.5104 33.4119C75.4839 16.5071 99.7687 5.48337 125.652 1.57232C151.535 -2.33873 177.997 1.01695 202.081 11.2645C202.135 11.2876 202.185 11.3211 202.226 11.3633C202.267 11.4054 202.3 11.4553 202.322 11.5101C202.344 11.5649 202.355 11.6234 202.355 11.6825C202.354 11.7415 202.342 11.7999 202.319 11.8543C202.296 11.9086 202.262 11.9579 202.22 11.9992C202.178 12.0406 202.128 12.0733 202.073 12.0954C202.018 12.1174 201.96 12.1285 201.9 12.128C201.841 12.1274 201.783 12.1153 201.729 12.0921C152.455 -8.83998 96.5419 -0.309247 55.81 34.3554C15.3268 68.8085 -2.0615 122.317 10.4307 174C10.4544 174.098 10.4443 174.202 10.402 174.294C10.3596 174.386 10.2875 174.46 10.1972 174.506C10.107 174.552 10.0039 174.566 9.90456 174.547C9.80525 174.527 9.71556 174.474 9.64996 174.397Z" fill="#E6E6E6"/>
<path d="M91.9444 270.911C91.8785 270.834 91.8406 270.737 91.8368 270.636C91.8329 270.535 91.8633 270.436 91.923 270.354C91.9828 270.272 92.0684 270.213 92.166 270.186C92.2636 270.159 92.3675 270.165 92.461 270.204C141.55 290.743 197.193 282.099 237.677 247.645C278.792 212.654 296.252 158.867 283.243 107.274C283.229 107.217 283.226 107.157 283.235 107.099C283.243 107.04 283.263 106.984 283.294 106.933C283.324 106.883 283.364 106.838 283.412 106.803C283.459 106.768 283.513 106.742 283.57 106.728C283.628 106.714 283.687 106.711 283.746 106.719C283.804 106.728 283.86 106.748 283.911 106.778C283.962 106.809 284.006 106.849 284.041 106.896C284.077 106.943 284.102 106.997 284.117 107.055C290.43 132.125 289.629 158.457 281.805 183.099C273.704 208.494 258.614 231.099 238.261 248.33C218.388 265.252 194.205 276.333 168.402 280.342C142.6 284.35 116.191 281.128 92.1126 271.034C92.0476 271.007 91.99 270.965 91.9444 270.911Z" fill="#E6E6E6"/>
<path d="M81.5405 278.894C81.5021 278.849 81.473 278.797 81.4547 278.741C81.4365 278.685 81.4296 278.626 81.4343 278.567C81.439 278.508 81.4553 278.45 81.4822 278.398C81.5091 278.345 81.5462 278.298 81.5912 278.26L294.258 97.2713C294.349 97.1939 294.467 97.1558 294.586 97.1653C294.705 97.1749 294.815 97.2312 294.892 97.322C294.97 97.4128 295.008 97.5306 294.998 97.6495C294.989 97.7684 294.933 97.8787 294.842 97.956L82.1751 278.945C82.1301 278.983 82.078 279.012 82.0217 279.031C81.9655 279.049 81.9062 279.056 81.8472 279.051C81.7883 279.046 81.7309 279.03 81.6782 279.003C81.6256 278.976 81.5788 278.939 81.5405 278.894Z" fill="#E6E6E6"/>
<path d="M0.107529 183.391C0.0691786 183.346 0.0400748 183.294 0.0218704 183.238C0.00366606 183.182 -0.00328171 183.123 0.00143272 183.064C0.00614715 183.005 0.0224285 182.948 0.0493436 182.895C0.0762586 182.842 0.113282 182.796 0.158298 182.757L212.825 1.76853C212.916 1.69132 213.034 1.65332 213.153 1.66289C213.272 1.67245 213.382 1.7288 213.459 1.81954C213.537 1.91028 213.575 2.028 213.565 2.14682C213.556 2.26565 213.5 2.37586 213.409 2.45325L0.742147 183.442C0.697151 183.48 0.64504 183.51 0.58879 183.528C0.532541 183.546 0.473255 183.553 0.414321 183.548C0.355387 183.543 0.297964 183.527 0.245324 183.5C0.192683 183.473 0.145856 183.436 0.107529 183.391Z" fill="#E6E6E6"/>
<path d="M81.5405 278.894C81.5021 278.849 81.473 278.797 81.4547 278.741C81.4365 278.685 81.4296 278.626 81.4343 278.567C81.439 278.508 81.4553 278.45 81.4822 278.398C81.5091 278.345 81.5462 278.298 81.5912 278.26L294.258 97.2713C294.349 97.1939 294.467 97.1558 294.586 97.1653C294.705 97.1749 294.815 97.2312 294.892 97.322C294.97 97.4128 295.008 97.5306 294.998 97.6495C294.989 97.7684 294.933 97.8787 294.842 97.956L82.1751 278.945C82.1301 278.983 82.078 279.012 82.0217 279.031C81.9655 279.049 81.9062 279.056 81.8472 279.051C81.7883 279.046 81.7309 279.03 81.6782 279.003C81.6256 278.976 81.5788 278.939 81.5405 278.894Z" fill="#E6E6E6"/>
<path d="M248.639 74.5973H166.33V74.1667C166.33 73.8314 166.197 73.5099 165.96 73.2728C165.723 73.0357 165.401 72.9025 165.065 72.9025H130.274C129.938 72.9025 129.617 73.0357 129.379 73.2728C129.142 73.5099 129.009 73.8314 129.009 74.1667V74.5973H46.3607C44.884 74.5973 43.4679 75.1833 42.4238 76.2264C41.3797 77.2696 40.7931 78.6843 40.7931 80.1595V192.757C40.7931 194.233 41.3797 195.647 42.4238 196.691C43.4679 197.734 44.884 198.32 46.3607 198.32H248.639C250.116 198.32 251.532 197.734 252.576 196.691C253.62 195.647 254.207 194.233 254.207 192.757V80.1595C254.207 78.6843 253.62 77.2696 252.576 76.2264C251.532 75.1833 250.116 74.5973 248.639 74.5973Z" fill="#3F3D56"/>
<path d="M50.7884 86.4352C50.6503 86.4354 50.5178 86.4904 50.4202 86.588C50.3225 86.6856 50.2676 86.8179 50.2675 86.9559V193.758C50.2676 193.896 50.3225 194.028 50.4202 194.125C50.5179 194.223 50.6503 194.278 50.7884 194.278H244.211C244.349 194.278 244.482 194.223 244.58 194.125C244.677 194.028 244.732 193.896 244.732 193.758V86.9559C244.732 86.8178 244.677 86.6855 244.58 86.5879C244.482 86.4903 244.349 86.4354 244.211 86.4352H50.7884Z" fill="#D1345B"/>
<path d="M147.33 81.3766C148.455 81.3766 149.366 80.466 149.366 79.3428C149.366 78.2196 148.455 77.309 147.33 77.309C146.206 77.309 145.295 78.2196 145.295 79.3428C145.295 80.466 146.206 81.3766 147.33 81.3766Z" fill="#D1345B"/>
<path d="M257.914 190.731H238.543V188.732C238.543 188.623 238.419 188.534 238.266 188.534H231.625C231.472 188.534 231.348 188.623 231.348 188.732V190.731H227.197V188.732C227.197 188.623 227.073 188.534 226.92 188.534H220.279C220.126 188.534 220.002 188.623 220.002 188.732V190.731H215.851V188.732C215.851 188.623 215.727 188.534 215.575 188.534H208.933C208.78 188.534 208.656 188.623 208.656 188.732V190.731H204.506V188.732C204.506 188.623 204.382 188.534 204.229 188.534H197.587C197.435 188.534 197.311 188.623 197.311 188.732V190.731H193.16V188.732C193.16 188.623 193.036 188.534 192.883 188.534H186.242C186.089 188.534 185.965 188.623 185.965 188.732V190.731H181.814V188.732C181.814 188.623 181.69 188.534 181.537 188.534H174.896C174.743 188.534 174.619 188.623 174.619 188.732V190.731H170.468V188.732C170.468 188.623 170.344 188.534 170.191 188.534H118.167C118.014 188.534 117.89 188.623 117.89 188.732V190.731H113.739V188.732C113.739 188.623 113.616 188.534 113.463 188.534H106.821C106.668 188.534 106.545 188.623 106.545 188.732V190.731H102.394V188.732C102.394 188.623 102.27 188.534 102.117 188.534H95.4755C95.3226 188.534 95.1987 188.623 95.1987 188.732V190.731H91.0479V188.732C91.0479 188.623 90.924 188.534 90.7711 188.534H84.1297C83.9769 188.534 83.853 188.623 83.853 188.732V190.731H79.7021V188.732C79.7021 188.623 79.5782 188.534 79.4253 188.534H72.7839C72.6311 188.534 72.5072 188.623 72.5072 188.732V190.731H68.3563V188.732C68.3563 188.623 68.2324 188.534 68.0796 188.534H61.4381C61.2853 188.534 61.1614 188.623 61.1614 188.732V190.731H57.0105V188.732C57.0105 188.623 56.8866 188.534 56.7338 188.534H50.0924C49.9395 188.534 49.8156 188.623 49.8156 188.732V190.731H37.0862C33.4183 190.731 30.4448 192.866 30.4448 195.501V197.657C30.4448 200.292 33.4183 202.427 37.0862 202.427H257.914C261.582 202.427 264.555 200.292 264.555 197.657V195.501C264.555 192.866 261.582 190.731 257.914 190.731Z" fill="#3F3D56"/>
<path d="M124.98 131.368H67.8087C67.6893 131.368 67.5748 131.321 67.4904 131.237C67.4059 131.152 67.3585 131.038 67.3585 130.919C67.3585 130.799 67.4059 130.685 67.4904 130.601C67.5748 130.516 67.6893 130.469 67.8087 130.469H124.98C125.1 130.469 125.214 130.516 125.298 130.601C125.383 130.685 125.43 130.799 125.43 130.919C125.43 131.038 125.383 131.152 125.298 131.237C125.214 131.321 125.1 131.368 124.98 131.368Z" fill="#F2F2F2"/>
<path d="M124.98 141.263H67.8087C67.6893 141.263 67.5748 141.215 67.4904 141.131C67.4059 141.047 67.3585 140.932 67.3585 140.813C67.3585 140.694 67.4059 140.579 67.4904 140.495C67.5748 140.411 67.6893 140.363 67.8087 140.363H124.98C125.1 140.363 125.214 140.411 125.298 140.495C125.383 140.579 125.43 140.694 125.43 140.813C125.43 140.932 125.383 141.047 125.298 141.131C125.214 141.215 125.1 141.263 124.98 141.263Z" fill="#F2F2F2"/>
<path d="M124.98 151.157H67.8087C67.7495 151.157 67.6908 151.146 67.636 151.123C67.5812 151.101 67.5315 151.067 67.4895 151.026C67.4476 150.984 67.4143 150.934 67.3916 150.88C67.3689 150.825 67.3572 150.766 67.3572 150.707C67.3572 150.648 67.3689 150.589 67.3916 150.535C67.4143 150.48 67.4476 150.431 67.4895 150.389C67.5315 150.347 67.5812 150.314 67.636 150.291C67.6908 150.269 67.7495 150.257 67.8087 150.257H124.98C125.039 150.257 125.098 150.269 125.153 150.291C125.208 150.314 125.257 150.347 125.299 150.389C125.341 150.431 125.375 150.48 125.397 150.535C125.42 150.589 125.432 150.648 125.432 150.707C125.432 150.766 125.42 150.825 125.397 150.88C125.375 150.934 125.341 150.984 125.299 151.026C125.257 151.067 125.208 151.101 125.153 151.123C125.098 151.146 125.039 151.157 124.98 151.157Z" fill="#F2F2F2"/>
<path d="M221.992 105.508H151.315C150.569 105.508 149.964 106.113 149.964 106.858V174.768C149.964 175.513 150.569 176.117 151.315 176.117H221.992C222.737 176.117 223.342 175.513 223.342 174.768V106.858C223.342 106.113 222.737 105.508 221.992 105.508Z" fill="white"/>
<path d="M164.658 142.877C164.9 138.6 166.654 134.549 169.609 131.444C172.563 128.34 176.525 126.384 180.788 125.927C185.051 125.469 189.338 126.539 192.885 128.945C196.432 131.352 199.008 134.939 200.154 139.066C200.373 139.058 200.592 139.05 200.813 139.05C201.567 139.057 202.316 139.184 203.03 139.426C212.029 142.379 209.66 155.802 200.188 155.802H176.909C175.263 155.806 173.632 155.479 172.116 154.839C170.599 154.2 169.227 153.261 168.082 152.079C166.937 150.897 166.042 149.497 165.452 147.961C164.861 146.426 164.587 144.787 164.645 143.144C164.649 143.055 164.653 142.966 164.658 142.877Z" fill="#D1345B"/>
<path d="M185.876 142.595V135.198H181.888V142.595H178.705L181.293 147.075L183.882 151.554L186.471 147.075L189.059 142.595H185.876Z" fill="white"/>
</g>
<defs>
<clipPath id="clip0_11:2">
<rect width="295" height="282" fill="white"/>
</clipPath>
</defs>
</svg>
