<svg width="24" height="24" viewBox="0 0 24 24" fill="none" xmlns="http://www.w3.org/2000/svg">
<path d="M5 2.5C4.86739 2.5 4.74021 2.55268 4.64645 2.64645C4.55268 2.74021 4.5 2.86739 4.5 3V21C4.5 21.1326 4.55268 21.2598 4.64645 21.3536C4.74021 21.4473 4.86739 21.5 5 21.5H6.75C6.94891 21.5 7.13968 21.579 7.28033 21.7197C7.42098 21.8603 7.5 22.0511 7.5 22.25C7.5 22.4489 7.42098 22.6397 7.28033 22.7803C7.13968 22.921 6.94891 23 6.75 23H5C4.46957 23 3.96086 22.7893 3.58579 22.4142C3.21071 22.0391 3 21.5304 3 21V3C3 2.46957 3.21071 1.96086 3.58579 1.58579C3.96086 1.21071 4.46957 1 5 1H14.982C15.5124 1.00011 16.021 1.2109 16.396 1.586L20.414 5.604C20.7891 5.97899 20.9999 6.48761 21 7.018V21C21 21.5304 20.7893 22.0391 20.4142 22.4142C20.0391 22.7893 19.5304 23 19 23H16.25C16.0511 23 15.8603 22.921 15.7197 22.7803C15.579 22.6397 15.5 22.4489 15.5 22.25C15.5 22.0511 15.579 21.8603 15.7197 21.7197C15.8603 21.579 16.0511 21.5 16.25 21.5H19C19.1326 21.5 19.2598 21.4473 19.3536 21.3536C19.4473 21.2598 19.5 21.1326 19.5 21V7.018C19.5001 6.9523 19.4873 6.88721 19.4622 6.82647C19.4372 6.76573 19.4004 6.71052 19.354 6.664L15.336 2.646C15.2895 2.5996 15.2343 2.56282 15.1735 2.53777C15.1128 2.51272 15.0477 2.49988 14.982 2.5H5Z" fill="#D1345B"/>
<path d="M11.5 15.75C11.5 15.5511 11.579 15.3603 11.7197 15.2197C11.8603 15.079 12.0511 15 12.25 15H13.25C13.4489 15 13.6397 15.079 13.7803 15.2197C13.921 15.3603 14 15.5511 14 15.75C14 15.9489 13.921 16.1397 13.7803 16.2803C13.6397 16.421 13.4489 16.5 13.25 16.5H12.25C12.0511 16.5 11.8603 16.421 11.7197 16.2803C11.579 16.1397 11.5 15.9489 11.5 15.75ZM12.25 12C12.0511 12 11.8603 12.079 11.7197 12.2197C11.579 12.3603 11.5 12.5511 11.5 12.75C11.5 12.9489 11.579 13.1397 11.7197 13.2803C11.8603 13.421 12.0511 13.5 12.25 13.5H13.25C13.4489 13.5 13.6397 13.421 13.7803 13.2803C13.921 13.1397 14 12.9489 14 12.75C14 12.5511 13.921 12.3603 13.7803 12.2197C13.6397 12.079 13.4489 12 13.25 12H12.25ZM11.5 9.75C11.5 9.55109 11.579 9.36032 11.7197 9.21967C11.8603 9.07902 12.0511 9 12.25 9H13.25C13.4489 9 13.6397 9.07902 13.7803 9.21967C13.921 9.36032 14 9.55109 14 9.75C14 9.94891 13.921 10.1397 13.7803 10.2803C13.6397 10.421 13.4489 10.5 13.25 10.5H12.25C12.0511 10.5 11.8603 10.421 11.7197 10.2803C11.579 10.1397 11.5 9.94891 11.5 9.75ZM12.25 6C12.0511 6 11.8603 6.07902 11.7197 6.21967C11.579 6.36032 11.5 6.55109 11.5 6.75C11.5 6.94891 11.579 7.13968 11.7197 7.28033C11.8603 7.42098 12.0511 7.5 12.25 7.5H13.25C13.4489 7.5 13.6397 7.42098 13.7803 7.28033C13.921 7.13968 14 6.94891 14 6.75C14 6.55109 13.921 6.36032 13.7803 6.21967C13.6397 6.07902 13.4489 6 13.25 6H12.25ZM11.5 3.75C11.5 3.55109 11.579 3.36032 11.7197 3.21967C11.8603 3.07902 12.0511 3 12.25 3H13.25C13.4489 3 13.6397 3.07902 13.7803 3.21967C13.921 3.36032 14 3.55109 14 3.75C14 3.94891 13.921 4.13968 13.7803 4.28033C13.6397 4.42098 13.4489 4.5 13.25 4.5H12.25C12.0511 4.5 11.8603 4.42098 11.7197 4.28033C11.579 4.13968 11.5 3.94891 11.5 3.75ZM9.75 13.5C9.55109 13.5 9.36032 13.579 9.21967 13.7197C9.07902 13.8603 9 14.0511 9 14.25C9 14.4489 9.07902 14.6397 9.21967 14.7803C9.36032 14.921 9.55109 15 9.75 15H10.75C10.9489 15 11.1397 14.921 11.2803 14.7803C11.421 14.6397 11.5 14.4489 11.5 14.25C11.5 14.0511 11.421 13.8603 11.2803 13.7197C11.1397 13.579 10.9489 13.5 10.75 13.5H9.75ZM9 11.25C9 11.0511 9.07902 10.8603 9.21967 10.7197C9.36032 10.579 9.55109 10.5 9.75 10.5H10.75C10.9489 10.5 11.1397 10.579 11.2803 10.7197C11.421 10.8603 11.5 11.0511 11.5 11.25C11.5 11.4489 11.421 11.6397 11.2803 11.7803C11.1397 11.921 10.9489 12 10.75 12H9.75C9.55109 12 9.36032 11.921 9.21967 11.7803C9.07902 11.6397 9 11.4489 9 11.25ZM9.75 7.5C9.55109 7.5 9.36032 7.57902 9.21967 7.71967C9.07902 7.86032 9 8.05109 9 8.25C9 8.44891 9.07902 8.63968 9.21967 8.78033C9.36032 8.92098 9.55109 9 9.75 9H10.75C10.9489 9 11.1397 8.92098 11.2803 8.78033C11.421 8.63968 11.5 8.44891 11.5 8.25C11.5 8.05109 11.421 7.86032 11.2803 7.71967C11.1397 7.57902 10.9489 7.5 10.75 7.5H9.75ZM9 5.25C9 5.05109 9.07902 4.86032 9.21967 4.71967C9.36032 4.57902 9.55109 4.5 9.75 4.5H10.75C10.9489 4.5 11.1397 4.57902 11.2803 4.71967C11.421 4.86032 11.5 5.05109 11.5 5.25C11.5 5.44891 11.421 5.63968 11.2803 5.78033C11.1397 5.92098 10.9489 6 10.75 6H9.75C9.55109 6 9.36032 5.92098 9.21967 5.78033C9.07902 5.63968 9 5.44891 9 5.25Z" fill="#D1345B"/>
<path fill-rule="evenodd" clip-rule="evenodd" d="M11 17C10.4696 17 9.96086 17.2107 9.58579 17.5858C9.21071 17.9609 9 18.4696 9 19V23.25C9 23.664 9.336 24 9.75 24H13.25C13.4489 24 13.6397 23.921 13.7803 23.7803C13.921 23.6397 14 23.4489 14 23.25V19C14 18.4696 13.7893 17.9609 13.4142 17.5858C13.0391 17.2107 12.5304 17 12 17H11ZM10.5 19C10.5 18.8674 10.5527 18.7402 10.6464 18.6464C10.7402 18.5527 10.8674 18.5 11 18.5H12C12.1326 18.5 12.2598 18.5527 12.3536 18.6464C12.4473 18.7402 12.5 18.8674 12.5 19V22.5H10.5V19Z" fill="#D1345B"/>
</svg>
